<svg width="1400" height="1000" xmlns="http://www.w3.org/2000/svg"><g><path d="M-130.98695143238515,-81.1099239906347L-115.87366823535109,1018.5231882312596L-111.53009802866693,403.28025174985623Z" fill="#5b2935" stroke="#5b2935"/><path d="M-130.98695143238515,-81.1099239906347L-111.53009802866693,403.28025174985623L-64.27068081546577,178.4050761939692Z" fill="#7a4e3d" stroke="#7a4e3d"/><path d="M-130.98695143238515,-81.1099239906347L-64.27068081546577,178.4050761939692L-23.77020683216469,52.09251997982874Z" fill="#87724e" stroke="#87724e"/><path d="M-130.98695143238515,-81.1099239906347L-23.77020683216469,52.09251997982874L39.16732247704304,-106.09582203554874Z" fill="#95905d" stroke="#95905d"/><path d="M39.16732247704304,-106.09582203554874L-23.77020683216469,52.09251997982874L120.18096339170346,18.935947221719232Z" fill="#a98c5e" stroke="#a98c5e"/><path d="M39.16732247704304,-106.09582203554874L120.18096339170346,18.935947221719232L190.46089011027647,-49.21875374228648Z" fill="#bd9b68" stroke="#bd9b68"/><path d="M39.16732247704304,-106.09582203554874L190.46089011027647,-49.21875374228648L351.3693208930183,-115.41811719427454Z" fill="#d3ab73" stroke="#d3ab73"/><path d="M190.46089011027647,-49.21875374228648L120.18096339170346,18.935947221719232L195.32713879136674,21.83521663390443Z" fill="#c89266" stroke="#c89266"/><path d="M190.46089011027647,-49.21875374228648L195.32713879136674,21.83521663390443L351.3693208930183,-115.41811719427454Z" fill="#dfa571" stroke="#dfa571"/><path d="M351.3693208930183,-115.41811719427454L195.32713879136674,21.83521663390443L401.1784168702285,46.06661768865479Z" fill="#e8a372" stroke="#e8a372"/><path d="M351.3693208930183,-115.41811719427454L401.1784168702285,46.06661768865479L569.474883975018,-75.7912368284482Z" fill="#f1c080" stroke="#f1c080"/><path d="M351.3693208930183,-115.41811719427454L569.474883975018,-75.7912368284482L1027.7351709564368,-89.7288968166479Z" fill="#fae095" stroke="#fae095"/><path d="M351.3693208930183,-115.41811719427454L1027.7351709564368,-89.7288968166479L1233.7222595065257,-115.68647323264804Z" fill="#fae9a6" stroke="#fae9a6"/><path d="M569.474883975018,-75.7912368284482L401.1784168702285,46.06661768865479L520.8145023815927,132.91645729099503Z" fill="#f1b179" stroke="#f1b179"/><path d="M569.474883975018,-75.7912368284482L520.8145023815927,132.91645729099503L650.978518744828,23.254103446203267Z" fill="#f4bd80" stroke="#f4bd80"/><path d="M569.474883975018,-75.7912368284482L650.978518744828,23.254103446203267L711.1791719589663,-22.438627299720693Z" fill="#f7cf8c" stroke="#f7cf8c"/><path d="M569.474883975018,-75.7912368284482L711.1791719589663,-22.438627299720693L866.7110810032209,-24.190046150245365Z" fill="#f8d793" stroke="#f8d793"/><path d="M569.474883975018,-75.7912368284482L866.7110810032209,-24.190046150245365L1027.7351709564368,-89.7288968166479Z" fill="#f9e29d" stroke="#f9e29d"/><path d="M711.1791719589663,-22.438627299720693L650.978518744828,23.254103446203267L808.9909172341871,72.69353222144196Z" fill="#f5c48b" stroke="#f5c48b"/><path d="M711.1791719589663,-22.438627299720693L808.9909172341871,72.69353222144196L866.7110810032209,-24.190046150245365Z" fill="#f5cc92" stroke="#f5cc92"/><path d="M866.7110810032209,-24.190046150245365L808.9909172341871,72.69353222144196L939.7351179662023,99.8536488507719Z" fill="#f3c391" stroke="#f3c391"/><path d="M866.7110810032209,-24.190046150245365L939.7351179662023,99.8536488507719L1027.7351709564368,-89.7288968166479Z" fill="#f4d59c" stroke="#f4d59c"/><path d="M1027.7351709564368,-89.7288968166479L939.7351179662023,99.8536488507719L1096.7602981256236,105.53201034114926Z" fill="#f1ca9b" stroke="#f1ca9b"/><path d="M1027.7351709564368,-89.7288968166479L1096.7602981256236,105.53201034114926L1127.7732479942042,-83.16929988986885Z" fill="#f2dea7" stroke="#f2dea7"/><path d="M1027.7351709564368,-89.7288968166479L1127.7732479942042,-83.16929988986885L1233.7222595065257,-115.68647323264804Z" fill="#f5f0b3" stroke="#f5f0b3"/><path d="M1127.7732479942042,-83.16929988986885L1096.7602981256236,105.53201034114926L1291.1827916130376,96.58203797484954Z" fill="#eecea3" stroke="#eecea3"/><path d="M1127.7732479942042,-83.16929988986885L1291.1827916130376,96.58203797484954L1233.7222595065257,-115.68647323264804Z" fill="#f1e5b0" stroke="#f1e5b0"/><path d="M1233.7222595065257,-115.68647323264804L1291.1827916130376,96.58203797484954L1432.4581933672487,-108.01382128424648Z" fill="#efeab7" stroke="#efeab7"/><path d="M1432.4581933672487,-108.01382128424648L1291.1827916130376,96.58203797484954L1460.1679484286913,34.13502651471977Z" fill="#ebdeb4" stroke="#ebdeb4"/><path d="M1432.4581933672487,-108.01382128424648L1460.1679484286913,34.13502651471977L1545.2627558421252,-49.41553386645937Z" fill="#ecefc0" stroke="#ecefc0"/><path d="M1545.2627558421252,-49.41553386645937L1460.1679484286913,34.13502651471977L1563.7392785501531,39.730303059253835Z" fill="#e9e1bb" stroke="#e9e1bb"/><path d="M-23.77020683216469,52.09251997982874L-64.27068081546577,178.4050761939692L119.24714081682853,202.83730847392724Z" fill="#985c47" stroke="#985c47"/><path d="M-23.77020683216469,52.09251997982874L119.24714081682853,202.83730847392724L120.18096339170346,18.935947221719232Z" fill="#ab7053" stroke="#ab7053"/><path d="M120.18096339170346,18.935947221719232L119.24714081682853,202.83730847392724L195.32713879136674,21.83521663390443Z" fill="#be7859" stroke="#be7859"/><path d="M195.32713879136674,21.83521663390443L119.24714081682853,202.83730847392724L187.80748478034258,280.9945620272448Z" fill="#c0604f" stroke="#c0604f"/><path d="M195.32713879136674,21.83521663390443L187.80748478034258,280.9945620272448L349.25537907226095,278.3953901865893Z" fill="#d35e51" stroke="#d35e51"/><path d="M195.32713879136674,21.83521663390443L349.25537907226095,278.3953901865893L401.1784168702285,46.06661768865479Z" fill="#e27d60" stroke="#e27d60"/><path d="M401.1784168702285,46.06661768865479L349.25537907226095,278.3953901865893L520.8145023815927,132.91645729099503Z" fill="#e78364" stroke="#e78364"/><path d="M520.8145023815927,132.91645729099503L349.25537907226095,278.3953901865893L415.97718940931463,337.18794775906304Z" fill="#e2705e" stroke="#e2705e"/><path d="M520.8145023815927,132.91645729099503L415.97718940931463,337.18794775906304L563.7943041090703,172.97845167191684Z" fill="#e87f63" stroke="#e87f63"/><path d="M520.8145023815927,132.91645729099503L563.7943041090703,172.97845167191684L650.978518744828,23.254103446203267Z" fill="#f1a575" stroke="#f1a575"/><path d="M650.978518744828,23.254103446203267L563.7943041090703,172.97845167191684L808.9909172341871,72.69353222144196Z" fill="#f1af7e" stroke="#f1af7e"/><path d="M808.9909172341871,72.69353222144196L563.7943041090703,172.97845167191684L622.545416273476,272.0672020386256Z" fill="#ee9673" stroke="#ee9673"/><path d="M808.9909172341871,72.69353222144196L622.545416273476,272.0672020386256L770.0666426912309,280.9855141741002Z" fill="#ec9074" stroke="#ec9074"/><path d="M808.9909172341871,72.69353222144196L770.0666426912309,280.9855141741002L939.7351179662023,99.8536488507719Z" fill="#efa482" stroke="#efa482"/><path d="M939.7351179662023,99.8536488507719L770.0666426912309,280.9855141741002L864.8603465229851,315.3126681103943Z" fill="#ea927c" stroke="#ea927c"/><path d="M939.7351179662023,99.8536488507719L864.8603465229851,315.3126681103943L977.0238372279822,256.3778642829494Z" fill="#e99580" stroke="#e99580"/><path d="M939.7351179662023,99.8536488507719L977.0238372279822,256.3778642829494L1096.7602981256236,105.53201034114926Z" fill="#eba88b" stroke="#eba88b"/><path d="M1096.7602981256236,105.53201034114926L977.0238372279822,256.3778642829494L1083.3614785340833,259.3564392197587Z" fill="#e89b87" stroke="#e89b87"/><path d="M1096.7602981256236,105.53201034114926L1083.3614785340833,259.3564392197587L1284.8551866822534,207.66318838903143Z" fill="#e7a18e" stroke="#e7a18e"/><path d="M1096.7602981256236,105.53201034114926L1284.8551866822534,207.66318838903143L1291.1827916130376,96.58203797484954Z" fill="#e8b39a" stroke="#e8b39a"/><path d="M1291.1827916130376,96.58203797484954L1284.8551866822534,207.66318838903143L1480.225656991753,192.85903336895444Z" fill="#e5ae9d" stroke="#e5ae9d"/><path d="M1291.1827916130376,96.58203797484954L1480.225656991753,192.85903336895444L1460.1679484286913,34.13502651471977Z" fill="#e7c1a8" stroke="#e7c1a8"/><path d="M1460.1679484286913,34.13502651471977L1480.225656991753,192.85903336895444L1563.7392785501531,39.730303059253835Z" fill="#e6c9b0" stroke="#e6c9b0"/><path d="M1563.7392785501531,39.730303059253835L1480.225656991753,192.85903336895444L1553.3224814849516,215.64971960895036Z" fill="#e2b9a8" stroke="#e2b9a8"/><path d="M1563.7392785501531,39.730303059253835L1553.3224814849516,215.64971960895036L1590.0295969805409,480.58106506503543Z" fill="#dca5a1" stroke="#dca5a1"/><path d="M1563.7392785501531,39.730303059253835L1590.0295969805409,480.58106506503543L1633.3280956058757,845.5718975871118Z" fill="#c3929f" stroke="#c3929f"/><path d="M-64.27068081546577,178.4050761939692L-111.53009802866693,403.28025174985623L37.31969307250969,432.9693804895263Z" fill="#7f373c" stroke="#7f373c"/><path d="M-64.27068081546577,178.4050761939692L37.31969307250969,432.9693804895263L119.24714081682853,202.83730847392724Z" fill="#974441" stroke="#974441"/><path d="M119.24714081682853,202.83730847392724L37.31969307250969,432.9693804895263L187.80748478034258,280.9945620272448Z" fill="#aa4647" stroke="#aa4647"/><path d="M187.80748478034258,280.9945620272448L37.31969307250969,432.9693804895263L218.6779408732324,512.729278937479Z" fill="#ab3d49" stroke="#ab3d49"/><path d="M187.80748478034258,280.9945620272448L218.6779408732324,512.729278937479L274.47255479560096,322.32133358741515Z" fill="#c3464f" stroke="#c3464f"/><path d="M187.80748478034258,280.9945620272448L274.47255479560096,322.32133358741515L349.25537907226095,278.3953901865893Z" fill="#d35352" stroke="#d35352"/><path d="M349.25537907226095,278.3953901865893L274.47255479560096,322.32133358741515L415.97718940931463,337.18794775906304Z" fill="#d95b57" stroke="#d95b57"/><path d="M563.7943041090703,172.97845167191684L415.97718940931463,337.18794775906304L622.545416273476,272.0672020386256Z" fill="#e77e66" stroke="#e77e66"/><path d="M622.545416273476,272.0672020386256L415.97718940931463,337.18794775906304L505.38875598968696,427.14501266880734Z" fill="#e17164" stroke="#e17164"/><path d="M622.545416273476,272.0672020386256L505.38875598968696,427.14501266880734L642.7634741092354,405.195695111355Z" fill="#e27669" stroke="#e27669"/><path d="M622.545416273476,272.0672020386256L642.7634741092354,405.195695111355L770.0666426912309,280.9855141741002Z" fill="#e5806f" stroke="#e5806f"/><path d="M770.0666426912309,280.9855141741002L642.7634741092354,405.195695111355L719.3267018975828,491.308181704339Z" fill="#e07872" stroke="#e07872"/><path d="M770.0666426912309,280.9855141741002L719.3267018975828,491.308181704339L864.8603465229851,315.3126681103943Z" fill="#e27f77" stroke="#e27f77"/><path d="M977.0238372279822,256.3778642829494L864.8603465229851,315.3126681103943L963.312745543054,406.2619778351584Z" fill="#e38980" stroke="#e38980"/><path d="M977.0238372279822,256.3778642829494L963.312745543054,406.2619778351584L1114.5011729874557,331.39494235566724Z" fill="#e18a85" stroke="#e18a85"/><path d="M977.0238372279822,256.3778642829494L1114.5011729874557,331.39494235566724L1083.3614785340833,259.3564392197587Z" fill="#e39188" stroke="#e39188"/><path d="M1083.3614785340833,259.3564392197587L1114.5011729874557,331.39494235566724L1244.3552035457258,316.9909443156217Z" fill="#e0928c" stroke="#e0928c"/><path d="M1083.3614785340833,259.3564392197587L1244.3552035457258,316.9909443156217L1284.8551866822534,207.66318838903143Z" fill="#e29990" stroke="#e29990"/><path d="M1284.8551866822534,207.66318838903143L1244.3552035457258,316.9909443156217L1430.5144027650495,319.0768794326949Z" fill="#df9997" stroke="#df9997"/><path d="M1284.8551866822534,207.66318838903143L1430.5144027650495,319.0768794326949L1480.225656991753,192.85903336895444Z" fill="#e0a19b" stroke="#e0a19b"/><path d="M1480.225656991753,192.85903336895444L1430.5144027650495,319.0768794326949L1553.3224814849516,215.64971960895036Z" fill="#dea3a0" stroke="#dea3a0"/><path d="M1553.3224814849516,215.64971960895036L1430.5144027650495,319.0768794326949L1556.1172318145968,420.3838169479328Z" fill="#d99aa1" stroke="#d99aa1"/><path d="M1553.3224814849516,215.64971960895036L1556.1172318145968,420.3838169479328L1590.0295969805409,480.58106506503543Z" fill="#d495a1" stroke="#d495a1"/><path d="M-111.53009802866693,403.28025174985623L-115.87366823535109,1018.5231882312596L-87.17661519575495,643.8172885548332Z" fill="#363b41" stroke="#363b41"/><path d="M-111.53009802866693,403.28025174985623L-87.17661519575495,643.8172885548332L-75.03578019092505,556.2331490374679Z" fill="#4b2a35" stroke="#4b2a35"/><path d="M-111.53009802866693,403.28025174985623L-75.03578019092505,556.2331490374679L15.831781432597225,522.3093756184655Z" fill="#5f2d38" stroke="#5f2d38"/><path d="M-111.53009802866693,403.28025174985623L15.831781432597225,522.3093756184655L37.31969307250969,432.9693804895263Z" fill="#73303c" stroke="#73303c"/><path d="M37.31969307250969,432.9693804895263L15.831781432597225,522.3093756184655L218.6779408732324,512.729278937479Z" fill="#863843" stroke="#863843"/><path d="M274.47255479560096,322.32133358741515L218.6779408732324,512.729278937479L353.07940399806677,513.1619356375119Z" fill="#c24651" stroke="#c24651"/><path d="M274.47255479560096,322.32133358741515L353.07940399806677,513.1619356375119L415.97718940931463,337.18794775906304Z" fill="#d45157" stroke="#d45157"/><path d="M415.97718940931463,337.18794775906304L353.07940399806677,513.1619356375119L505.38875598968696,427.14501266880734Z" fill="#d15b5d" stroke="#d15b5d"/><path d="M505.38875598968696,427.14501266880734L353.07940399806677,513.1619356375119L468.35416588818265,564.6832138221515Z" fill="#bd5d5b" stroke="#bd5d5b"/><path d="M505.38875598968696,427.14501266880734L468.35416588818265,564.6832138221515L642.7634741092354,405.195695111355Z" fill="#cd6c64" stroke="#cd6c64"/><path d="M642.7634741092354,405.195695111355L468.35416588818265,564.6832138221515L719.3267018975828,491.308181704339Z" fill="#c87268" stroke="#c87268"/><path d="M864.8603465229851,315.3126681103943L719.3267018975828,491.308181704339L826.9421966375312,529.0837984840769Z" fill="#d47b77" stroke="#d47b77"/><path d="M864.8603465229851,315.3126681103943L826.9421966375312,529.0837984840769L963.312745543054,406.2619778351584Z" fill="#da7e7d" stroke="#da7e7d"/><path d="M963.312745543054,406.2619778351584L826.9421966375312,529.0837984840769L1009.2657533405855,504.22901731672124Z" fill="#c97e7e" stroke="#c97e7e"/><path d="M963.312745543054,406.2619778351584L1009.2657533405855,504.22901731672124L1114.5011729874557,331.39494235566724Z" fill="#d88285" stroke="#d88285"/><path d="M1114.5011729874557,331.39494235566724L1009.2657533405855,504.22901731672124L1107.2277939737899,537.9853473279152Z" fill="#cc8387" stroke="#cc8387"/><path d="M1114.5011729874557,331.39494235566724L1107.2277939737899,537.9853473279152L1244.3552035457258,316.9909443156217Z" fill="#db868d" stroke="#db868d"/><path d="M1244.3552035457258,316.9909443156217L1107.2277939737899,537.9853473279152L1322.2007009244903,583.4869696822271Z" fill="#c3878f" stroke="#c3878f"/><path d="M1244.3552035457258,316.9909443156217L1322.2007009244903,583.4869696822271L1430.5144027650495,319.0768794326949Z" fill="#d58b97" stroke="#d58b97"/><path d="M1430.5144027650495,319.0768794326949L1322.2007009244903,583.4869696822271L1454.8921201951457,572.4831197205333Z" fill="#bd8c98" stroke="#bd8c98"/><path d="M1430.5144027650495,319.0768794326949L1454.8921201951457,572.4831197205333L1556.1172318145968,420.3838169479328Z" fill="#ca8f9e" stroke="#ca8f9e"/><path d="M1556.1172318145968,420.3838169479328L1454.8921201951457,572.4831197205333L1590.0295969805409,480.58106506503543Z" fill="#bb909e" stroke="#bb909e"/><path d="M-75.03578019092505,556.2331490374679L-87.17661519575495,643.8172885548332L23.257073772272825,694.4163969279587Z" fill="#45333c" stroke="#45333c"/><path d="M-75.03578019092505,556.2331490374679L23.257073772272825,694.4163969279587L15.831781432597225,522.3093756184655Z" fill="#502f38" stroke="#502f38"/><path d="M15.831781432597225,522.3093756184655L23.257073772272825,694.4163969279587L189.27415672185035,621.6456925434418Z" fill="#643841" stroke="#643841"/><path d="M15.831781432597225,522.3093756184655L189.27415672185035,621.6456925434418L218.6779408732324,512.729278937479Z" fill="#823a45" stroke="#823a45"/><path d="M218.6779408732324,512.729278937479L189.27415672185035,621.6456925434418L339.6552234228706,664.2172239512707Z" fill="#91414b" stroke="#91414b"/><path d="M218.6779408732324,512.729278937479L339.6552234228706,664.2172239512707L353.07940399806677,513.1619356375119Z" fill="#a54750" stroke="#a54750"/><path d="M353.07940399806677,513.1619356375119L339.6552234228706,664.2172239512707L468.35416588818265,564.6832138221515Z" fill="#a55455" stroke="#a55455"/><path d="M468.35416588818265,564.6832138221515L339.6552234228706,664.2172239512707L506.8350794920535,700.0086095521766Z" fill="#a36560" stroke="#a36560"/><path d="M468.35416588818265,564.6832138221515L506.8350794920535,700.0086095521766L685.3065844773379,669.5176410443449Z" fill="#a97769" stroke="#a97769"/><path d="M468.35416588818265,564.6832138221515L685.3065844773379,669.5176410443449L719.3267018975828,491.308181704339Z" fill="#b07267" stroke="#b07267"/><path d="M719.3267018975828,491.308181704339L685.3065844773379,669.5176410443449L826.9421966375312,529.0837984840769Z" fill="#b47770" stroke="#b47770"/><path d="M826.9421966375312,529.0837984840769L685.3065844773379,669.5176410443449L799.7662449406184,712.8612317874822Z" fill="#aa7f76" stroke="#aa7f76"/><path d="M826.9421966375312,529.0837984840769L799.7662449406184,712.8612317874822L951.7542862441142,651.035439798777Z" fill="#a9817b" stroke="#a9817b"/><path d="M826.9421966375312,529.0837984840769L951.7542862441142,651.035439798777L1009.2657533405855,504.22901731672124Z" fill="#b37d7b" stroke="#b37d7b"/><path d="M1009.2657533405855,504.22901731672124L951.7542862441142,651.035439798777L1107.2277939737899,537.9853473279152Z" fill="#b08081" stroke="#b08081"/><path d="M1107.2277939737899,537.9853473279152L951.7542862441142,651.035439798777L1178.96608749351,715.9675799670566Z" fill="#a58989" stroke="#a58989"/><path d="M1107.2277939737899,537.9853473279152L1178.96608749351,715.9675799670566L1322.2007009244903,583.4869696822271Z" fill="#a3878c" stroke="#a3878c"/><path d="M1322.2007009244903,583.4869696822271L1178.96608749351,715.9675799670566L1311.3632428182573,661.2319775113843Z" fill="#a29297" stroke="#a29297"/><path d="M1322.2007009244903,583.4869696822271L1311.3632428182573,661.2319775113843L1451.6395153050848,666.9591108370394Z" fill="#a09199" stroke="#a09199"/><path d="M1322.2007009244903,583.4869696822271L1451.6395153050848,666.9591108370394L1454.8921201951457,572.4831197205333Z" fill="#a08c97" stroke="#a08c97"/><path d="M1454.8921201951457,572.4831197205333L1451.6395153050848,666.9591108370394L1594.7359787799357,680.8944837927287Z" fill="#9e96a1" stroke="#9e96a1"/><path d="M1454.8921201951457,572.4831197205333L1594.7359787799357,680.8944837927287L1590.0295969805409,480.58106506503543Z" fill="#a38f9c" stroke="#a38f9c"/><path d="M1590.0295969805409,480.58106506503543L1594.7359787799357,680.8944837927287L1633.3280956058757,845.5718975871118Z" fill="#9c9fa7" stroke="#9c9fa7"/><path d="M-87.17661519575495,643.8172885548332L-115.87366823535109,1018.5231882312596L-87.08894844707234,855.274417374312Z" fill="#375b5b" stroke="#375b5b"/><path d="M-87.17661519575495,643.8172885548332L-87.08894844707234,855.274417374312L23.257073772272825,694.4163969279587Z" fill="#43474c" stroke="#43474c"/><path d="M23.257073772272825,694.4163969279587L-87.08894844707234,855.274417374312L126.94845604417577,860.0018533835839Z" fill="#565b5d" stroke="#565b5d"/><path d="M23.257073772272825,694.4163969279587L126.94845604417577,860.0018533835839L186.84800208835946,838.6244984601886Z" fill="#6d6162" stroke="#6d6162"/><path d="M23.257073772272825,694.4163969279587L186.84800208835946,838.6244984601886L189.27415672185035,621.6456925434418Z" fill="#735257" stroke="#735257"/><path d="M189.27415672185035,621.6456925434418L186.84800208835946,838.6244984601886L339.6552234228706,664.2172239512707Z" fill="#8e575c" stroke="#8e575c"/><path d="M339.6552234228706,664.2172239512707L186.84800208835946,838.6244984601886L321.7877589504813,827.3701441882997Z" fill="#99686a" stroke="#99686a"/><path d="M339.6552234228706,664.2172239512707L321.7877589504813,827.3701441882997L506.8350794920535,700.0086095521766Z" fill="#9f6f6b" stroke="#9f6f6b"/><path d="M506.8350794920535,700.0086095521766L321.7877589504813,827.3701441882997L573.1219686862073,815.7274970169171Z" fill="#a48679" stroke="#a48679"/><path d="M506.8350794920535,700.0086095521766L573.1219686862073,815.7274970169171L685.3065844773379,669.5176410443449Z" fill="#a98a79" stroke="#a98a79"/><path d="M685.3065844773379,669.5176410443449L573.1219686862073,815.7274970169171L667.8615042395135,815.0242203998255Z" fill="#a99483" stroke="#a99483"/><path d="M685.3065844773379,669.5176410443449L667.8615042395135,815.0242203998255L799.7662449406184,712.8612317874822Z" fill="#a99183" stroke="#a99183"/><path d="M799.7662449406184,712.8612317874822L667.8615042395135,815.0242203998255L847.519421566421,803.459136972982Z" fill="#a99c8e" stroke="#a99c8e"/><path d="M799.7662449406184,712.8612317874822L847.519421566421,803.459136972982L951.7542862441142,651.035439798777Z" fill="#a9958b" stroke="#a9958b"/><path d="M951.7542862441142,651.035439798777L847.519421566421,803.459136972982L938.3588337057588,823.6453359626695Z" fill="#a89d94" stroke="#a89d94"/><path d="M951.7542862441142,651.035439798777L938.3588337057588,823.6453359626695L1131.422950112055,818.6853290810764Z" fill="#a6a19a" stroke="#a6a19a"/><path d="M951.7542862441142,651.035439798777L1131.422950112055,818.6853290810764L1178.96608749351,715.9675799670566Z" fill="#a59c99" stroke="#a59c99"/><path d="M1178.96608749351,715.9675799670566L1131.422950112055,818.6853290810764L1300.9259788962438,855.1595738691157Z" fill="#a3aeab" stroke="#a3aeab"/><path d="M1178.96608749351,715.9675799670566L1300.9259788962438,855.1595738691157L1311.3632428182573,661.2319775113843Z" fill="#a2a4a5" stroke="#a2a4a5"/><path d="M1311.3632428182573,661.2319775113843L1300.9259788962438,855.1595738691157L1378.9975607451834,829.1054439519655Z" fill="#a0aeb0" stroke="#a0aeb0"/><path d="M1311.3632428182573,661.2319775113843L1378.9975607451834,829.1054439519655L1451.6395153050848,666.9591108370394Z" fill="#a0a2a8" stroke="#a0a2a8"/><path d="M1451.6395153050848,666.9591108370394L1378.9975607451834,829.1054439519655L1633.3280956058757,845.5718975871118Z" fill="#9eb2b8" stroke="#9eb2b8"/><path d="M1451.6395153050848,666.9591108370394L1633.3280956058757,845.5718975871118L1594.7359787799357,680.8944837927287Z" fill="#9caab1" stroke="#9caab1"/><path d="M-87.08894844707234,855.274417374312L-115.87366823535109,1018.5231882312596L35.78577296414305,944.3607588581206Z" fill="#41726e" stroke="#41726e"/><path d="M-87.08894844707234,855.274417374312L35.78577296414305,944.3607588581206L126.94845604417577,860.0018533835839Z" fill="#576d6b" stroke="#576d6b"/><path d="M126.94845604417577,860.0018533835839L35.78577296414305,944.3607588581206L188.71406259295534,1031.0942599710947Z" fill="#6e7f7b" stroke="#6e7f7b"/><path d="M126.94845604417577,860.0018533835839L188.71406259295534,1031.0942599710947L186.84800208835946,838.6244984601886Z" fill="#7b7c79" stroke="#7b7c79"/><path d="M186.84800208835946,838.6244984601886L188.71406259295534,1031.0942599710947L321.7877589504813,827.3701441882997Z" fill="#8c7e7b" stroke="#8c7e7b"/><path d="M321.7877589504813,827.3701441882997L188.71406259295534,1031.0942599710947L357.07524223234725,1014.6781322436303Z" fill="#998f89" stroke="#998f89"/><path d="M321.7877589504813,827.3701441882997L357.07524223234725,1014.6781322436303L481.6171314239137,990.3650713936959Z" fill="#9f9b8e" stroke="#9f9b8e"/><path d="M321.7877589504813,827.3701441882997L481.6171314239137,990.3650713936959L573.1219686862073,815.7274970169171Z" fill="#a39889" stroke="#a39889"/><path d="M573.1219686862073,815.7274970169171L481.6171314239137,990.3650713936959L731.1695116222844,952.7247623770762Z" fill="#a9b29a" stroke="#a9b29a"/><path d="M573.1219686862073,815.7274970169171L731.1695116222844,952.7247623770762L667.8615042395135,815.0242203998255Z" fill="#a9a894" stroke="#a9a894"/><path d="M667.8615042395135,815.0242203998255L731.1695116222844,952.7247623770762L776.0344603738079,930.6941328130202Z" fill="#a9b39f" stroke="#a9b39f"/><path d="M667.8615042395135,815.0242203998255L776.0344603738079,930.6941328130202L847.519421566421,803.459136972982Z" fill="#a9ab9a" stroke="#a9ab9a"/><path d="M847.519421566421,803.459136972982L776.0344603738079,930.6941328130202L938.3588337057588,823.6453359626695Z" fill="#a9afa1" stroke="#a9afa1"/><path d="M938.3588337057588,823.6453359626695L776.0344603738079,930.6941328130202L981.1637697280403,999.0240257483351Z" fill="#a8beae" stroke="#a8beae"/><path d="M938.3588337057588,823.6453359626695L981.1637697280403,999.0240257483351L1131.422950112055,818.6853290810764Z" fill="#a6b9ae" stroke="#a6b9ae"/><path d="M1131.422950112055,818.6853290810764L981.1637697280403,999.0240257483351L1174.0246129940072,1004.3033966423618Z" fill="#a4c8bd" stroke="#a4c8bd"/><path d="M1131.422950112055,818.6853290810764L1174.0246129940072,1004.3033966423618L1250.1273838933516,992.4500701551405Z" fill="#a3cac1" stroke="#a3cac1"/><path d="M1131.422950112055,818.6853290810764L1250.1273838933516,992.4500701551405L1300.9259788962438,855.1595738691157Z" fill="#a2c1bc" stroke="#a2c1bc"/><path d="M1300.9259788962438,855.1595738691157L1250.1273838933516,992.4500701551405L1444.5258275286913,967.314954569299Z" fill="#a0ceca" stroke="#a0ceca"/><path d="M1300.9259788962438,855.1595738691157L1444.5258275286913,967.314954569299L1378.9975607451834,829.1054439519655Z" fill="#a0c5c3" stroke="#a0c5c3"/><path d="M1378.9975607451834,829.1054439519655L1444.5258275286913,967.314954569299L1633.3280956058757,845.5718975871118Z" fill="#9ec7c9" stroke="#9ec7c9"/><path d="M1633.3280956058757,845.5718975871118L1444.5258275286913,967.314954569299L1538.461474712281,1021.4739095438334Z" fill="#9cd6d5" stroke="#9cd6d5"/><path d="M1633.3280956058757,845.5718975871118L1538.461474712281,1021.4739095438334L1601.0530799104663,1113.5480877741147Z" fill="#9be1dd" stroke="#9be1dd"/><path d="M-115.87366823535109,1018.5231882312596L-43.80919823571779,1111.4496268363337L35.78577296414305,944.3607588581206Z" fill="#45857d" stroke="#45857d"/><path d="M35.78577296414305,944.3607588581206L-43.80919823571779,1111.4496268363337L77.6962443644597,1110.406043867079Z" fill="#569087" stroke="#569087"/><path d="M35.78577296414305,944.3607588581206L77.6962443644597,1110.406043867079L168.30375027292808,1065.3488360029353Z" fill="#689289" stroke="#689289"/><path d="M35.78577296414305,944.3607588581206L168.30375027292808,1065.3488360029353L188.71406259295534,1031.0942599710947Z" fill="#728f88" stroke="#728f88"/><path d="M188.71406259295534,1031.0942599710947L168.30375027292808,1065.3488360029353L357.07524223234725,1014.6781322436303Z" fill="#8d9b93" stroke="#8d9b93"/><path d="M357.07524223234725,1014.6781322436303L168.30375027292808,1065.3488360029353L408.99797643774485,1090.2129792014998Z" fill="#9aa79c" stroke="#9aa79c"/><path d="M357.07524223234725,1014.6781322436303L408.99797643774485,1090.2129792014998L481.6171314239137,990.3650713936959Z" fill="#a0b29f" stroke="#a0b29f"/><path d="M481.6171314239137,990.3650713936959L408.99797643774485,1090.2129792014998L564.9979756830469,1146.6837974753764Z" fill="#a4c5ac" stroke="#a4c5ac"/><path d="M481.6171314239137,990.3650713936959L564.9979756830469,1146.6837974753764L731.1695116222844,952.7247623770762Z" fill="#a9c9ac" stroke="#a9c9ac"/><path d="M731.1695116222844,952.7247623770762L564.9979756830469,1146.6837974753764L666.4187062524262,1147.1380008451713Z" fill="#a9d6b9" stroke="#a9d6b9"/><path d="M731.1695116222844,952.7247623770762L666.4187062524262,1147.1380008451713L877.8022412684237,1079.158015467672Z" fill="#a9d6bd" stroke="#a9d6bd"/><path d="M731.1695116222844,952.7247623770762L877.8022412684237,1079.158015467672L776.0344603738079,930.6941328130202Z" fill="#a9c9b3" stroke="#a9c9b3"/><path d="M776.0344603738079,930.6941328130202L877.8022412684237,1079.158015467672L981.1637697280403,999.0240257483351Z" fill="#a8cfbb" stroke="#a8cfbb"/><path d="M981.1637697280403,999.0240257483351L877.8022412684237,1079.158015467672L981.081000052972,1179.284568485738Z" fill="#a7e2cd" stroke="#a7e2cd"/><path d="M981.1637697280403,999.0240257483351L981.081000052972,1179.284568485738L1172.1963015718557,1161.6270139027988Z" fill="#a5ebd7" stroke="#a5ebd7"/><path d="M981.1637697280403,999.0240257483351L1172.1963015718557,1161.6270139027988L1174.0246129940072,1004.3033966423618Z" fill="#a4e0d1" stroke="#a4e0d1"/><path d="M1174.0246129940072,1004.3033966423618L1172.1963015718557,1161.6270139027988L1224.2436965482445,1174.6643572528258Z" fill="#a2efdf" stroke="#a2efdf"/><path d="M1174.0246129940072,1004.3033966423618L1224.2436965482445,1174.6643572528258L1250.1273838933516,992.4500701551405Z" fill="#a2e4d7" stroke="#a2e4d7"/><path d="M1250.1273838933516,992.4500701551405L1224.2436965482445,1174.6643572528258L1410.8539525195092,1139.9952949505305Z" fill="#a0efe3" stroke="#a0efe3"/><path d="M1250.1273838933516,992.4500701551405L1410.8539525195092,1139.9952949505305L1444.5258275286913,967.314954569299Z" fill="#9fe3dc" stroke="#9fe3dc"/><path d="M1444.5258275286913,967.314954569299L1410.8539525195092,1139.9952949505305L1538.461474712281,1021.4739095438334Z" fill="#9ee8e3" stroke="#9ee8e3"/><path d="M1538.461474712281,1021.4739095438334L1410.8539525195092,1139.9952949505305L1601.0530799104663,1113.5480877741147Z" fill="#9df4ee" stroke="#9df4ee"/><path d="M-43.80919823571779,1111.4496268363337L981.081000052972,1179.284568485738L564.9979756830469,1146.6837974753764Z" fill="#a5d3b9" stroke="#a5d3b9"/><path d="M-43.80919823571779,1111.4496268363337L564.9979756830469,1146.6837974753764L77.6962443644597,1110.406043867079Z" fill="#83aa9f" stroke="#83aa9f"/><path d="M77.6962443644597,1110.406043867079L564.9979756830469,1146.6837974753764L408.99797643774485,1090.2129792014998Z" fill="#9cb9a9" stroke="#9cb9a9"/><path d="M77.6962443644597,1110.406043867079L408.99797643774485,1090.2129792014998L168.30375027292808,1065.3488360029353Z" fill="#88a49a" stroke="#88a49a"/><path d="M564.9979756830469,1146.6837974753764L981.081000052972,1179.284568485738L666.4187062524262,1147.1380008451713Z" fill="#a8e3cc" stroke="#a8e3cc"/><path d="M666.4187062524262,1147.1380008451713L981.081000052972,1179.284568485738L877.8022412684237,1079.158015467672Z" fill="#a8e8cf" stroke="#a8e8cf"/><path d="M981.081000052972,1179.284568485738L1224.2436965482445,1174.6643572528258L1172.1963015718557,1161.6270139027988Z" fill="#a3f0e6" stroke="#a3f0e6"/><path d="M1224.2436965482445,1174.6643572528258L1601.0530799104663,1113.5480877741147L1410.8539525195092,1139.9952949505305Z" fill="#9ef8f1" stroke="#9ef8f1"/></g></svg>
